# xmcd CD database file
# Generated: Thu Oct 3 11:04:36 2002 by KSCD
# 
# Track frame offsets:
#       150
#       3705
#       7317
#       12140
#       16892
#       19675
#       24457
#       31115
#       34607
#       41197
#       45492
#       50027
#       53922
#       57437
#       65380
#       69107
#       76912
#       88302
#       95037
#       101502
#       108120
#       112362
#       119095
#       126832
#       131002
#       135462
#       139692
#       144877
#       151310
#       157162
#       164082
#       168102
#       176107
#       183362
#       190672
#       199422
#       205482
#
# Disc length: 2833 seconds
#
# Revision: 1
# Processed by: cddbd v1.4PL0 Copyright (c) Steve Scherf et al.
# Submitted via: Kscd 1.3.3
#
DISCID=0f0b0f25
DTITLE=Roland White - Roland White's Approach to Bluegrass Mandolin - V1
DYEAR=1900
DGENRE=
TTITLE0=Exercise 1
TTITLE1=Exercise 2
TTITLE2=Exercise 3
TTITLE3=Exercise 4
TTITLE4=Exercise 5
TTITLE5=Exercise 6
TTITLE6=Bile 'em Cabbage Down Slow
TTITLE7=Bile 'em Cabbage Down Fast
TTITLE8=BeCD Rhythm Chop
TTITLE9=Cabin Home on the Hill Slow
TTITLE10=Cabin Home on the Hill Fast
TTITLE11=Cripple Creek Slow
TTITLE12=Cripple Creek Fast
TTITLE13=Soldier's Joy Slow
TTITLE14=Soldier's Joy Fast
TTITLE15=Liberty Slow
TTITLE16=Liberty Fast
TTITLE17=St. Anne's Reel Slow
TTITLE18=St. Anne's Reel Fast
TTITLE19=Clinch Mtn. Backstep Slow
TTITLE20=Clinch Mtn. Backstep Fast
TTITLE21=Mississippi Sawyer Slow
TTITLE22=Mississippi Sawyer Fast
TTITLE23=Sugarfoot Rag Slow
TTITLE24=Sugarfoot Rag Fast
TTITLE25=Salty Dog Blues Slow
TTITLE26=Salty Dog Blues Fast
TTITLE27=Salt Creek Slow
TTITLE28=Salt Creek Fast
TTITLE29=Old Joe Clark Slow
TTITLE30=Old Joe Clark Fast
TTITLE31=Ragtime Annie Slow
TTITLE32=Ragtime Annie Fast
TTITLE33=Golden Slippers Slow
TTITLE34=Golden Slippers Fast
TTITLE35=Blue Grass Stomp Slow
TTITLE36=Blue Grass Stomp Fast
EXTD=
EXTT0=
EXTT1=
EXTT2=
EXTT3=
EXTT4=
EXTT5=
EXTT6=
EXTT7=
EXTT8=
EXTT9=
EXTT10=
EXTT11=
EXTT12=
EXTT13=
EXTT14=
EXTT15=
EXTT16=
EXTT17=
EXTT18=
EXTT19=
EXTT20=
EXTT21=
EXTT22=
EXTT23=
EXTT24=
EXTT25=
EXTT26=
EXTT27=
EXTT28=
EXTT29=
EXTT30=
EXTT31=
EXTT32=
EXTT33=
EXTT34=
EXTT35=
EXTT36=
PLAYORDER=
